<svg width="1149" height="534" viewBox="0 0 1149 534" fill="none" xmlns="http://www.w3.org/2000/svg">
<g clip-path="url(#clip0_23:50)">
<rect width="1149" height="533.796" transform="matrix(-1 0 0 1 1149 0)" fill="url(#paint0_linear_23:50)"/>
<path d="M1003.21 526.124L1005.19 525.671C983.2 425.981 927.948 335.453 849.609 270.764C790.382 221.932 719.94 189.274 644.917 175.863C569.894 162.452 492.758 168.73 420.771 194.106C348.784 219.482 284.316 263.121 233.436 320.914C182.556 378.707 146.939 448.752 129.938 524.455L131.908 524.911C178.448 316.559 357.539 171.043 567.426 171.043C774.563 171.043 957.838 320.376 1003.21 526.124Z" fill="#3F3D56"/>
<path d="M239.872 282.549C209.558 282.549 184.983 257.492 184.983 226.584C184.983 195.675 209.558 170.618 239.872 170.618C270.186 170.618 294.76 195.675 294.76 226.584C294.76 257.492 270.186 282.549 239.872 282.549Z" fill="#FF6584"/>
<path d="M260.723 450.335H262.744V531.735H260.723V450.335Z" fill="#3F3D56"/>
<path d="M242.07 460.708C241.942 489.172 261.582 512.339 261.582 512.339C261.582 512.339 281.431 489.357 281.559 460.894C281.688 432.43 262.048 409.263 262.048 409.263C262.048 409.263 242.199 432.245 242.07 460.708Z" fill="#ADEFD1"/>
<path opacity="0.1" d="M242.07 460.708C241.942 489.172 261.582 512.339 261.582 512.339C261.582 512.339 281.431 489.357 281.559 460.894C281.688 432.43 262.048 409.263 262.048 409.263C262.048 409.263 242.199 432.245 242.07 460.708Z" fill="black"/>
<path opacity="0.4" d="M642.69 288.496C625.25 288.496 611.113 274.081 611.113 256.299C611.113 238.517 625.25 224.102 642.69 224.102C660.13 224.102 674.268 238.517 674.268 256.299C674.268 274.081 660.13 288.496 642.69 288.496Z" fill="#6C63FF"/>
<path opacity="0.4" d="M701.133 294.263C688.899 294.263 678.981 284.151 678.981 271.677C678.981 259.203 688.899 249.091 701.133 249.091C713.367 249.091 723.284 259.203 723.284 271.677C723.284 284.151 713.367 294.263 701.133 294.263Z" fill="#6C63FF"/>
<path opacity="0.4" d="M938.613 359.177C926.379 359.177 916.461 349.065 916.461 336.591C916.461 324.117 926.379 314.005 938.613 314.005C950.847 314.005 960.765 324.117 960.765 336.591C960.765 349.065 950.847 359.177 938.613 359.177Z" fill="#6C63FF"/>
<path opacity="0.4" d="M283.65 285.847C266.21 285.847 252.072 271.432 252.072 253.65C252.072 235.868 266.21 221.453 283.65 221.453C301.09 221.453 315.228 235.868 315.228 253.65C315.228 271.432 301.09 285.847 283.65 285.847Z" fill="#6C63FF"/>
<path d="M1091.77 522.684C1090.06 529.136 1084.2 533.132 1084.2 533.132C1084.2 533.132 1081.11 526.667 1082.82 520.215C1084.53 513.763 1090.4 509.767 1090.4 509.767C1090.4 509.767 1093.48 516.232 1091.77 522.684Z" fill="#3F3D56"/>
<path d="M1089.26 521.297C1084.56 525.959 1083.99 533.126 1083.99 533.126C1083.99 533.126 1091.03 532.734 1095.72 528.072C1100.42 523.41 1101 516.243 1101 516.243C1101 516.243 1093.95 516.635 1089.26 521.297Z" fill="#7AE7B5"/>
<path d="M473.313 522.684C471.601 529.136 465.737 533.132 465.737 533.132C465.737 533.132 462.649 526.667 464.361 520.215C466.073 513.763 471.936 509.767 471.936 509.767C471.936 509.767 475.024 516.232 473.313 522.684Z" fill="#3F3D56"/>
<path d="M470.797 521.297C466.1 525.959 465.526 533.126 465.526 533.126C465.526 533.126 472.568 532.734 477.266 528.072C481.963 523.41 482.537 516.243 482.537 516.243C482.537 516.243 475.495 516.635 470.797 521.297Z" fill="#7AE7B5"/>
<path d="M1080.14 474.184L1084.32 467.08L1045.3 432.976H944.961V442.922L981.196 482.711L1023.01 491.236L1080.14 474.184Z" fill="#3F3D56"/>
<path d="M927.689 452.989V430.757H940.826V437.767L944.961 432.976L978.408 467.08L983.984 472.763L990.951 501.183L978.408 532.444H914.302V468.501L927.689 452.989Z" fill="#CCCCCC"/>
<path d="M978.409 467.079H1084.32V532.444H978.409V467.079Z" fill="#F2F2F2"/>
<path d="M993.042 487.684H1015.34V507.577H993.042V487.684Z" fill="#3F3D56"/>
<path d="M1024.4 486.973H1043.91V532.444H1024.4V486.973Z" fill="#CCCCCC"/>
<path d="M1066.21 494.078V486.973H1074.57V494.078H1066.9H1066.21Z" fill="#3F3D56"/>
<path d="M1066.9 499.761H1074.57V506.867H1066.21V499.761H1066.9Z" fill="#3F3D56"/>
<path d="M1052.27 486.973H1060.63V494.078H1052.27V486.973Z" fill="#3F3D56"/>
<path d="M1052.27 499.762H1060.63V506.867H1052.27V499.762Z" fill="#3F3D56"/>
<path d="M948.445 494.789V487.683H956.808V494.789H949.143H948.445Z" fill="#3F3D56"/>
<path d="M949.143 500.472H956.808V507.577H948.445V500.472H949.143Z" fill="#3F3D56"/>
<path d="M934.509 487.684H942.871V494.788H934.509V487.684Z" fill="#3F3D56"/>
<path d="M934.509 500.472H942.871V507.577H934.509V500.472Z" fill="#3F3D56"/>
<path d="M676.933 474.184L681.114 467.08L642.092 432.976H541.75V442.922L577.984 482.711L619.794 491.236L676.933 474.184Z" fill="#3F3D56"/>
<path d="M524.478 452.989V430.757H537.615V437.767L541.75 432.976L575.197 467.08L580.773 472.763L587.74 501.183L575.197 532.444H511.091V468.501L524.478 452.989Z" fill="#CCCCCC"/>
<path d="M575.198 467.079H681.114V532.444H575.198V467.079Z" fill="#F2F2F2"/>
<path d="M589.831 487.684H612.129V507.577H589.831V487.684Z" fill="#3F3D56"/>
<path d="M621.187 486.973H640.698V532.444H621.187V486.973Z" fill="#CCCCCC"/>
<path d="M662.996 494.078V486.973H671.358V494.078H663.694H662.996Z" fill="#3F3D56"/>
<path d="M663.694 499.761H671.358V506.867H662.996V499.761H663.694Z" fill="#3F3D56"/>
<path d="M649.06 486.973H657.422V494.078H649.06V486.973Z" fill="#3F3D56"/>
<path d="M649.06 499.762H657.422V506.867H649.06V499.762Z" fill="#3F3D56"/>
<path d="M545.234 494.789V487.683H553.597V494.789H545.932H545.234Z" fill="#3F3D56"/>
<path d="M545.932 500.472H553.597V507.577H545.234V500.472H545.932Z" fill="#3F3D56"/>
<path d="M531.298 487.684H539.66V494.788H531.298V487.684Z" fill="#3F3D56"/>
<path d="M531.298 500.472H539.66V507.577H531.298V500.472Z" fill="#3F3D56"/>
<path d="M865.524 354.823L872.492 349.138L833.471 313.614H734.523V344.876L798.63 388.926L865.524 354.823Z" fill="#3F3D56"/>
<path d="M716.483 333.541V314.324H729.62V319.031L734.523 313.614L766.577 349.138L779.119 357.665L798.567 502.539L769.238 532.444H701.076V350.559L716.483 333.541Z" fill="#CCCCCC"/>
<path d="M766.577 349.139H872.493V532.444H766.577V349.139Z" fill="#F2F2F2"/>
<path d="M811.87 487.684H831.381V532.444H811.87V487.684Z" fill="#CCCCCC"/>
<path d="M852.285 500.472V493.368H860.646V500.472H852.981H852.285Z" fill="#3F3D56"/>
<path d="M852.981 506.156H860.646V513.261H852.285V506.156H852.981Z" fill="#3F3D56"/>
<path d="M838.349 493.367H846.71V500.472H838.349V493.367Z" fill="#3F3D56"/>
<path d="M838.349 506.156H846.71V513.261H838.349V506.156Z" fill="#3F3D56"/>
<path d="M795.147 500.472V493.368H803.508V500.472H795.843H795.147Z" fill="#3F3D56"/>
<path d="M795.843 506.156H803.508V513.261H795.147V506.156H795.843Z" fill="#3F3D56"/>
<path d="M781.21 493.367H789.572V500.472H781.21V493.367Z" fill="#3F3D56"/>
<path d="M781.21 506.156H789.572V513.261H781.21V506.156Z" fill="#3F3D56"/>
<path d="M736.614 358.375V351.27H744.975V358.375H737.31H736.614Z" fill="#3F3D56"/>
<path d="M737.31 364.059H744.975V371.164H736.614V364.059H737.31Z" fill="#3F3D56"/>
<path d="M722.677 351.27H731.039V358.375H722.677V351.27Z" fill="#3F3D56"/>
<path d="M722.677 364.059H731.039V371.164H722.677V364.059Z" fill="#3F3D56"/>
<path d="M736.614 398.163V391.057H744.975V398.163H737.31H736.614Z" fill="#3F3D56"/>
<path d="M737.31 403.846H744.975V410.951H736.614V403.846H737.31Z" fill="#3F3D56"/>
<path d="M722.677 391.057H731.039V398.162H722.677V391.057Z" fill="#3F3D56"/>
<path d="M722.677 403.846H731.039V410.951H722.677V403.846Z" fill="#3F3D56"/>
<path d="M736.614 437.95V430.844H744.975V437.95H737.31H736.614Z" fill="#3F3D56"/>
<path d="M737.31 443.633H744.975V450.738H736.614V443.633H737.31Z" fill="#3F3D56"/>
<path d="M722.677 430.845H731.039V437.95H722.677V430.845Z" fill="#3F3D56"/>
<path d="M722.677 443.633H731.039V450.738H722.677V443.633Z" fill="#3F3D56"/>
<path d="M736.614 477.737V470.631H744.975V477.737H737.31H736.614Z" fill="#3F3D56"/>
<path d="M737.31 483.421H744.975V490.525H736.614V483.421H737.31Z" fill="#3F3D56"/>
<path d="M722.677 470.632H731.039V477.737H722.677V470.632Z" fill="#3F3D56"/>
<path d="M722.677 483.421H731.039V490.526H722.677V483.421Z" fill="#3F3D56"/>
<path d="M779.816 358.375H860.647V375.427H779.816V358.375Z" fill="#3F3D56"/>
<path d="M779.816 392.478H860.647V409.53H779.816V392.478Z" fill="#3F3D56"/>
<path d="M779.816 426.582H860.647V443.633H779.816V426.582Z" fill="#3F3D56"/>
<path d="M779.816 460.685H860.647V477.737H779.816V460.685Z" fill="#3F3D56"/>
<path d="M458.271 354.823L465.239 349.138L426.217 313.614H327.27V344.876L391.376 388.926L458.271 354.823Z" fill="#3F3D56"/>
<path d="M309.229 333.541V314.324H322.367V319.031L327.27 313.614L359.324 349.138L371.866 357.665L391.314 502.539L361.984 532.444H293.823V350.559L309.229 333.541Z" fill="#CCCCCC"/>
<path d="M359.323 349.139H465.239V532.444H359.323V349.139Z" fill="#F2F2F2"/>
<path d="M404.616 487.684H424.127V532.444H404.616V487.684Z" fill="#CCCCCC"/>
<path d="M445.032 500.472V493.368H453.393V500.472H445.728H445.032Z" fill="#3F3D56"/>
<path d="M445.728 506.156H453.393V513.261H445.032V506.156H445.728Z" fill="#3F3D56"/>
<path d="M431.095 493.367H439.457V500.472H431.095V493.367Z" fill="#3F3D56"/>
<path d="M431.095 506.156H439.457V513.261H431.095V506.156Z" fill="#3F3D56"/>
<path d="M387.893 500.472V493.368H396.254V500.472H388.589H387.893Z" fill="#3F3D56"/>
<path d="M388.589 506.156H396.254V513.261H387.893V506.156H388.589Z" fill="#3F3D56"/>
<path d="M373.956 493.367H382.318V500.472H373.956V493.367Z" fill="#3F3D56"/>
<path d="M373.956 506.156H382.318V513.261H373.956V506.156Z" fill="#3F3D56"/>
<path d="M329.361 358.375V351.27H337.722V358.375H330.057H329.361Z" fill="#3F3D56"/>
<path d="M330.057 364.059H337.722V371.164H329.361V364.059H330.057Z" fill="#3F3D56"/>
<path d="M315.424 351.27H323.786V358.375H315.424V351.27Z" fill="#3F3D56"/>
<path d="M315.424 364.059H323.786V371.164H315.424V364.059Z" fill="#3F3D56"/>
<path d="M329.361 398.163V391.057H337.722V398.163H330.057H329.361Z" fill="#3F3D56"/>
<path d="M330.057 403.846H337.722V410.951H329.361V403.846H330.057Z" fill="#3F3D56"/>
<path d="M315.424 391.057H323.786V398.162H315.424V391.057Z" fill="#3F3D56"/>
<path d="M315.424 403.846H323.786V410.951H315.424V403.846Z" fill="#3F3D56"/>
<path d="M329.361 437.95V430.844H337.722V437.95H330.057H329.361Z" fill="#3F3D56"/>
<path d="M330.057 443.633H337.722V450.738H329.361V443.633H330.057Z" fill="#3F3D56"/>
<path d="M315.424 430.845H323.786V437.95H315.424V430.845Z" fill="#3F3D56"/>
<path d="M315.424 443.633H323.786V450.738H315.424V443.633Z" fill="#3F3D56"/>
<path d="M329.361 477.737V470.631H337.722V477.737H330.057H329.361Z" fill="#3F3D56"/>
<path d="M330.057 483.421H337.722V490.525H329.361V483.421H330.057Z" fill="#3F3D56"/>
<path d="M315.424 470.632H323.786V477.737H315.424V470.632Z" fill="#3F3D56"/>
<path d="M315.424 483.421H323.786V490.526H315.424V483.421Z" fill="#3F3D56"/>
<path d="M372.563 358.375H453.393V375.427H372.563V358.375Z" fill="#3F3D56"/>
<path d="M372.563 392.478H453.393V409.53H372.563V392.478Z" fill="#3F3D56"/>
<path d="M372.563 426.582H453.393V443.633H372.563V426.582Z" fill="#3F3D56"/>
<path d="M372.563 460.685H453.393V477.737H372.563V460.685Z" fill="#3F3D56"/>
<path d="M234.939 354.823L241.906 349.138L202.885 313.614H103.938V344.876L168.044 388.926L234.939 354.823Z" fill="#3F3D56"/>
<path d="M85.8971 333.541V314.324H99.0344V319.031L103.938 313.614L135.991 349.138L148.533 357.665L167.981 502.539L138.652 532.444H70.4903V350.559L85.8971 333.541Z" fill="#CCCCCC"/>
<path d="M135.991 349.139H241.907V532.444H135.991V349.139Z" fill="#F2F2F2"/>
<path d="M181.284 487.684H200.795V532.444H181.284V487.684Z" fill="#CCCCCC"/>
<path d="M221.699 500.472V493.368H230.061V500.472H222.395H221.699Z" fill="#3F3D56"/>
<path d="M222.395 506.156H230.061V513.261H221.699V506.156H222.395Z" fill="#3F3D56"/>
<path d="M207.763 493.367H216.125V500.472H207.763V493.367Z" fill="#3F3D56"/>
<path d="M207.763 506.156H216.125V513.261H207.763V506.156Z" fill="#3F3D56"/>
<path d="M164.561 500.472V493.368H172.922V500.472H165.257H164.561Z" fill="#3F3D56"/>
<path d="M165.257 506.156H172.922V513.261H164.561V506.156H165.257Z" fill="#3F3D56"/>
<path d="M150.624 493.367H158.986V500.472H150.624V493.367Z" fill="#3F3D56"/>
<path d="M150.624 506.156H158.986V513.261H150.624V506.156Z" fill="#3F3D56"/>
<path d="M106.028 358.375V351.27H114.39V358.375H106.725H106.028Z" fill="#3F3D56"/>
<path d="M106.725 364.059H114.39V371.164H106.028V364.059H106.725Z" fill="#3F3D56"/>
<path d="M92.0918 351.27H100.454V358.375H92.0918V351.27Z" fill="#3F3D56"/>
<path d="M92.0918 364.059H100.454V371.164H92.0918V364.059Z" fill="#3F3D56"/>
<path d="M106.028 398.163V391.057H114.39V398.163H106.725H106.028Z" fill="#3F3D56"/>
<path d="M106.725 403.846H114.39V410.951H106.028V403.846H106.725Z" fill="#3F3D56"/>
<path d="M92.0918 391.057H100.454V398.162H92.0918V391.057Z" fill="#3F3D56"/>
<path d="M92.0918 403.846H100.454V410.951H92.0918V403.846Z" fill="#3F3D56"/>
<path d="M106.028 437.95V430.844H114.39V437.95H106.725H106.028Z" fill="#3F3D56"/>
<path d="M106.725 443.633H114.39V450.738H106.028V443.633H106.725Z" fill="#3F3D56"/>
<path d="M92.0918 430.845H100.454V437.95H92.0918V430.845Z" fill="#3F3D56"/>
<path d="M92.0918 443.633H100.454V450.738H92.0918V443.633Z" fill="#3F3D56"/>
<path d="M106.028 477.737V470.631H114.39V477.737H106.725H106.028Z" fill="#3F3D56"/>
<path d="M106.725 483.421H114.39V490.525H106.028V483.421H106.725Z" fill="#3F3D56"/>
<path d="M92.0918 470.632H100.454V477.737H92.0918V470.632Z" fill="#3F3D56"/>
<path d="M92.0918 483.421H100.454V490.526H92.0918V483.421Z" fill="#3F3D56"/>
<path d="M149.231 358.375H230.061V375.427H149.231V358.375Z" fill="#3F3D56"/>
<path d="M149.231 392.478H230.061V409.53H149.231V392.478Z" fill="#3F3D56"/>
<path d="M149.231 426.582H230.061V443.633H149.231V426.582Z" fill="#3F3D56"/>
<path d="M149.231 460.685H230.061V477.737H149.231V460.685Z" fill="#3F3D56"/>
<path d="M0 531.735H1149V533.796H0V531.735Z" fill="#3F3D56"/>
<path d="M892.319 450.335H894.34V531.735H892.319V450.335Z" fill="#3F3D56"/>
<path d="M873.667 460.708C873.538 489.172 893.178 512.339 893.178 512.339C893.178 512.339 913.027 489.357 913.156 460.894C913.285 432.43 893.644 409.263 893.644 409.263C893.644 409.263 873.795 432.245 873.667 460.708Z" fill="#7AE7B5"/>
<path d="M690.208 450.335H692.229V531.735H690.208V450.335Z" fill="#3F3D56"/>
<path d="M671.556 460.708C671.427 489.172 691.067 512.339 691.067 512.339C691.067 512.339 710.916 489.357 711.045 460.894C711.174 432.43 691.533 409.263 691.533 409.263C691.533 409.263 671.684 432.245 671.556 460.708Z" fill="#7AE7B5"/>
<path d="M286.997 450.335H289.019V531.735H286.997V450.335Z" fill="#3F3D56"/>
<path d="M268.345 460.708C268.216 489.172 287.857 512.339 287.857 512.339C287.857 512.339 307.705 489.357 307.834 460.894C307.963 432.43 288.322 409.263 288.322 409.263C288.322 409.263 268.474 432.245 268.345 460.708Z" fill="#7AE7B5"/>
<path d="M555.299 177.277C534.091 177.277 516.898 173.333 516.898 168.467C516.898 163.602 534.091 159.657 555.299 159.657C576.508 159.657 593.7 163.602 593.7 168.467C593.7 173.333 576.508 177.277 555.299 177.277Z" fill="#00203F"/>
<path d="M511.846 45.3367C511.846 70.3755 556.31 141.162 556.31 141.162C556.31 141.162 600.774 70.3755 600.774 45.3367C600.774 33.3127 596.09 21.7811 587.751 13.2788C579.412 4.77653 568.103 0 556.31 0C544.517 0 533.208 4.77653 524.869 13.2788C516.53 21.7811 511.846 33.3127 511.846 45.3367Z" fill="#00203F"/>
<path d="M556.31 71.0963C542.357 71.0963 531.046 59.5633 531.046 45.3367C531.046 31.1102 542.357 19.5772 556.31 19.5772C570.263 19.5772 581.574 31.1102 581.574 45.3367C581.574 59.5633 570.263 71.0963 556.31 71.0963Z" fill="#F2F2F2"/>
</g>
<defs>
<linearGradient id="paint0_linear_23:50" x1="1149" y1="267" x2="1.23574e-05" y2="267" gradientUnits="userSpaceOnUse">
<stop stop-color="#ADEFD1"/>
<stop offset="0.5" stop-color="#ADEFD1" stop-opacity="0"/>
</linearGradient>
<clipPath id="clip0_23:50">
<rect width="1149" height="533.796" fill="white" transform="matrix(-1 0 0 1 1149 0)"/>
</clipPath>
</defs>
</svg>
