<svg width="73" height="71" viewBox="0 0 73 71" fill="none" xmlns="http://www.w3.org/2000/svg">
<path d="M52.8539 0H20.1448C9.03697 0 0 8.7898 0 19.5933V51.4063C0 62.2102 9.03697 70.9996 20.1448 70.9996H52.8539C63.9626 70.9996 72.9996 62.2098 72.9996 51.4063V19.5933C73 8.7898 63.9626 0 52.8539 0ZM66.5231 51.4063C66.5231 58.7367 60.3912 64.7002 52.8543 64.7002H20.1448C12.6083 64.7006 6.47688 58.7367 6.47688 51.4063V19.5933C6.47688 12.2633 12.6083 6.29943 20.1448 6.29943H52.8539C60.3908 6.29943 66.5227 12.2633 66.5227 19.5933V51.4063H66.5231Z" fill="#ADEFD1"/>
<path d="M36.4998 17.2058C26.1278 17.2058 17.6897 25.4127 17.6897 35.5006C17.6897 45.5881 26.1278 53.7946 36.4998 53.7946C46.8719 53.7946 55.31 45.5881 55.31 35.5006C55.31 25.4127 46.8719 17.2058 36.4998 17.2058ZM36.4998 47.4947C29.6996 47.4947 24.1666 42.1142 24.1666 35.5002C24.1666 28.8858 29.6991 23.5048 36.4998 23.5048C43.3006 23.5048 48.8331 28.8858 48.8331 35.5002C48.8331 42.1142 43.3001 47.4947 36.4998 47.4947Z" fill="#ADEFD1"/>
<path d="M56.0988 11.8644C54.851 11.8644 53.6251 12.3557 52.7438 13.2167C51.8582 14.0734 51.3491 15.2661 51.3491 16.484C51.3491 17.6981 51.8586 18.8903 52.7438 19.7513C53.6247 20.608 54.851 21.1035 56.0988 21.1035C57.351 21.1035 58.573 20.608 59.4582 19.7513C60.3433 18.8903 60.8485 17.6976 60.8485 16.484C60.8485 15.2661 60.3433 14.0734 59.4582 13.2167C58.5773 12.3557 57.351 11.8644 56.0988 11.8644Z" fill="#ADEFD1"/>
</svg>
