<svg width="226" height="53" viewBox="0 0 226 53" fill="none" xmlns="http://www.w3.org/2000/svg">
<path d="M7.472 10.768C12.128 7.552 17.432 5.008 23.384 3.136C29.336 1.264 34.256 0.327996 38.144 0.327996C42.032 0.327996 45.152 0.759996 47.504 1.624C49.904 2.44 51.632 3.496 52.688 4.792C54.464 7 55.352 8.92 55.352 10.552C55.352 12.52 53.984 14.824 51.248 17.464C49.856 18.808 47.888 20.296 45.344 21.928L44.552 22.36C44.216 22.456 44.048 22.6 44.048 22.792L44.48 23.152C46.352 23.92 47.768 24.832 48.728 25.888C49.736 26.944 50.24 28.504 50.24 30.568C50.24 33.4 48.968 36.112 46.424 38.704C43.928 41.248 40.976 43.312 37.568 44.896C34.16 46.432 30.968 47.656 27.992 48.568C25.016 49.48 22.88 49.936 21.584 49.936C20.336 49.936 19.208 49.768 18.2 49.432C17.192 49.144 16.376 48.784 15.752 48.352C14.456 47.44 13.544 46.504 13.016 45.544C12.824 45.304 12.656 45.184 12.512 45.184C12.176 45.184 11.552 46.24 10.64 48.352C9.728 50.464 9.248 51.52 9.2 51.52V51.448C9.056 51.928 8.816 52.168 8.48 52.168C7.712 52.168 6.968 51.448 6.248 50.008C5.576 48.616 5.24 47.536 5.24 46.768C5.24 45.952 5.72 44.608 6.68 42.736C7.64 40.816 8.6 39.184 9.56 37.84L11 35.824C12.104 33.424 16.664 28.408 24.68 20.776C32.696 13.144 37.232 9.328 38.288 9.328C38.768 9.328 39.152 9.496 39.44 9.832C39.776 10.12 40.04 10.576 40.232 11.2C40.232 11.584 40.016 11.896 39.584 12.136L29.432 23.08C29.336 23.272 29.288 23.416 29.288 23.512C29.288 23.56 29.36 23.584 29.504 23.584C30.56 23.584 32.96 22.768 36.704 21.136C40.448 19.504 44.072 17.512 47.576 15.16C51.128 12.808 52.904 10.864 52.904 9.328C52.904 7.648 49.544 6.808 42.824 6.808C38.552 6.808 34.328 7.288 30.152 8.248C26.024 9.16 22.472 10.288 19.496 11.632C16.568 12.928 13.928 14.296 11.576 15.736C9.224 17.176 7.472 18.424 6.32 19.48C5.168 20.536 4.592 21.208 4.592 21.496C4.592 21.784 4.712 21.928 4.952 21.928C6.488 21.928 9.008 21.112 12.512 19.48C16.064 17.8 18.224 16.696 18.992 16.168C19.76 15.592 20.24 15.304 20.432 15.304C20.672 15.304 20.864 15.424 21.008 15.664C19.232 18.592 16.784 21.088 13.664 23.152C10.592 25.168 8.192 26.176 6.464 26.176C4.736 26.176 3.296 25.48 2.144 24.088C1.04 22.648 0.488 21.4 0.488 20.344C0.488 17.128 2.816 13.936 7.472 10.768ZM46.712 27.76C46.712 27.28 46.4 26.896 45.776 26.608C45.2 26.32 44.6 26.152 43.976 26.104H43.04C40.016 26.104 36.176 26.776 31.52 28.12C29.936 28.552 28.952 28.768 28.568 28.768C28.184 28.768 27.848 28.624 27.56 28.336C27.32 28.048 27.128 27.784 26.984 27.544C26.888 27.256 26.72 27.112 26.48 27.112C26.192 27.112 25.88 27.28 25.544 27.616L13.088 44.248V44.32C13.328 44.752 13.808 44.968 14.528 44.968H15.392C18.992 44.968 23.288 43.984 28.28 42.016C33.272 40 37.592 37.624 41.24 34.888C44.888 32.104 46.712 29.728 46.712 27.76ZM56.3212 35.536C58.9612 33.712 61.7212 31.744 64.6012 29.632C63.0652 28.576 62.0812 27.544 61.6492 26.536C61.5052 26.2 61.4332 25.96 61.4332 25.816C61.4332 24.856 61.7452 24.232 62.3692 23.944C62.9932 23.608 64.0012 23.44 65.3932 23.44C65.9212 23.44 67.4812 24.088 70.0732 25.384C72.6652 26.68 74.2972 27.328 74.9692 27.328C75.6892 27.328 76.6732 27.136 77.9212 26.752C79.1692 26.32 80.1532 26.104 80.8732 26.104C81.6412 26.104 82.1932 26.272 82.5292 26.608C83.7292 28.192 84.3292 29.152 84.3292 29.488C84.3292 29.824 84.1612 30.112 83.8252 30.352C83.5372 30.544 82.5532 31.216 80.8732 32.368C79.2412 33.52 77.6332 34.696 76.0492 35.896C74.4652 37.096 72.9772 38.44 71.5852 39.928C70.1932 41.416 69.4972 42.616 69.4972 43.528C69.4972 43.672 69.6172 43.744 69.8572 43.744C72.4492 43.744 81.1852 38.488 96.0652 27.976C96.4012 27.976 96.5692 28.288 96.5692 28.912C96.5692 29.488 94.6732 31.552 90.8812 35.104C87.0892 38.608 82.7932 42.064 77.9932 45.472C73.2412 48.832 69.7852 50.512 67.6252 50.512C64.2652 50.512 62.5852 48.832 62.5852 45.472C62.5852 43.648 63.1852 41.896 64.3852 40.216C65.6332 38.488 68.2252 36.184 72.1612 33.304C71.3452 33.304 70.2412 33.112 68.8492 32.728C67.4572 32.296 66.5692 31.792 66.1852 31.216C64.9372 32.32 62.7772 34.168 59.7052 36.76C58.9852 37.288 58.0492 37.552 56.8972 37.552C55.7452 37.552 55.1692 37.384 55.1692 37.048C55.1692 36.664 55.5532 36.16 56.3212 35.536ZM92.684 45.832C94.22 45.832 96.116 44.824 98.372 42.808C100.628 40.792 101.804 39.4 101.9 38.632C101.324 38.152 100.7 37.288 100.028 36.04C99.404 34.744 99.068 34.096 99.02 34.096C97.532 35.488 96.212 37.096 95.06 38.92C93.236 41.992 92.324 44.104 92.324 45.256C92.324 45.64 92.444 45.832 92.684 45.832ZM108.236 28.192C107.756 28.192 106.748 28.936 105.212 30.424C103.724 31.912 102.98 32.944 102.98 33.52C102.98 33.664 103.124 33.952 103.412 34.384C103.7 34.816 103.916 35.032 104.06 35.032C104.876 35.032 105.788 34.048 106.796 32.08C107.852 30.112 108.38 28.984 108.38 28.696C108.38 28.36 108.332 28.192 108.236 28.192ZM108.38 37.48C109.724 37.48 111.812 36.664 114.644 35.032C117.524 33.4 120.044 31.768 122.204 30.136L125.444 27.616C125.876 27.952 126.092 28.36 126.092 28.84C126.092 29.32 125.876 29.752 125.444 30.136C117.524 37.48 111.524 41.152 107.444 41.152C107.156 41.152 106.724 41.104 106.148 41.008C100.724 47.296 96.068 50.44 92.18 50.44C89.588 50.056 87.956 49.144 87.284 47.704C86.9 46.984 86.708 46.072 86.708 44.968C86.708 41.8 88.532 38.032 92.18 33.664C95.828 29.248 100.412 26.008 105.932 23.944C106.412 23.944 106.772 24.064 107.012 24.304C107.252 24.496 107.468 24.616 107.66 24.664C107.852 24.664 108.092 24.568 108.38 24.376C108.716 24.136 109.148 24.016 109.676 24.016C110.204 23.968 110.756 24.256 111.332 24.88C112.1 25.504 112.484 26.272 112.484 27.184C112.484 29.872 111.116 33.304 108.38 37.48ZM153.029 5.224C154.277 5.224 154.997 5.512 155.189 6.088C155.189 6.28 153.989 7.648 151.589 10.192C149.237 12.688 145.973 16.144 141.797 20.56C137.669 24.928 134.117 28.816 131.141 32.224C130.949 32.368 130.853 32.56 130.853 32.8C130.853 33.04 130.901 33.16 130.997 33.16C131.141 33.16 131.309 33.064 131.501 32.872L134.237 30.712C136.205 29.464 138.365 28.36 140.717 27.4C143.117 26.44 145.109 25.96 146.693 25.96C147.653 26.248 148.541 26.92 149.357 27.976C149.789 28.408 150.005 28.912 150.005 29.488C150.005 31.216 147.869 33.424 143.597 36.112C139.373 38.8 135.485 40.408 131.933 40.936C131.885 40.984 131.861 41.032 131.861 41.08C131.861 41.464 132.989 42.832 135.245 45.184C137.549 47.488 139.325 49 140.573 49.72C141.581 50.2 142.229 50.44 142.517 50.44C142.709 50.536 142.805 50.656 142.805 50.8C142.805 50.944 142.661 51.136 142.373 51.376C141.269 52.288 140.141 52.744 138.989 52.744C137.837 52.744 137.045 52.696 136.613 52.6C136.229 52.504 135.845 52.384 135.461 52.24C135.077 52.096 134.597 51.712 134.021 51.088C133.493 50.512 132.941 49.912 132.365 49.288C131.837 48.712 130.949 47.704 129.701 46.264C128.453 44.776 127.157 43.312 125.813 41.872C125.621 41.584 125.405 41.44 125.165 41.44C124.925 41.44 124.685 41.56 124.445 41.8C121.469 44.056 119.501 46.552 118.541 49.288C118.493 49.72 118.205 49.936 117.677 49.936H117.605C115.637 49.936 114.317 48.88 113.645 46.768C113.645 46.288 113.861 45.616 114.293 44.752C118.421 38.56 122.429 33.328 126.317 29.056C130.253 24.784 137.237 17.8 147.269 8.104C148.229 7.336 148.853 6.832 149.141 6.592C149.429 6.352 149.717 6.136 150.005 5.944C150.341 5.704 150.605 5.56 150.797 5.512C151.181 5.32 151.661 5.224 152.237 5.224H153.029ZM143.021 29.848C142.061 29.896 140.453 30.568 138.197 31.864C135.989 33.16 133.997 34.456 132.221 35.752L129.629 37.624C129.437 37.816 129.341 37.984 129.341 38.128C129.341 38.224 129.413 38.272 129.557 38.272C130.709 38.272 133.277 37.072 137.261 34.672C141.245 32.224 143.237 30.712 143.237 30.136L143.021 29.848ZM172.871 27.256C171.623 27.256 169.511 28.552 166.535 31.144C163.559 33.688 162.071 35.248 162.071 35.824C162.071 35.92 162.143 35.968 162.287 35.968C163.343 35.968 165.431 34.792 168.551 32.44C171.719 30.088 173.303 28.48 173.303 27.616C173.303 27.376 173.159 27.256 172.871 27.256ZM157.535 50.296C153.839 50.296 151.991 48.04 151.991 43.528C151.991 40.696 153.215 37.696 155.663 34.528C158.159 31.312 161.087 28.696 164.447 26.68C167.807 24.616 170.783 23.584 173.375 23.584C174.527 23.584 175.583 24.04 176.543 24.952C177.551 25.864 178.055 26.752 178.055 27.616C178.055 29.2 176.927 31 174.671 33.016C172.415 34.984 170.039 36.592 167.543 37.84C165.095 39.04 163.463 39.64 162.647 39.64C161.879 39.64 161.303 39.28 160.919 38.56C160.727 38.416 160.463 38.344 160.127 38.344C159.791 38.344 159.239 38.992 158.471 40.288C157.703 41.536 157.319 42.568 157.319 43.384C157.319 44.152 157.607 44.632 158.183 44.824C161.831 44.824 165.791 43.768 170.063 41.656C174.335 39.496 180.239 35.728 187.775 30.352C188.303 29.968 189.095 29.392 190.151 28.624C191.255 27.856 191.903 27.4 192.095 27.256C192.527 27.592 192.743 28 192.743 28.48C192.743 28.96 192.527 29.392 192.095 29.776C189.695 32.176 186.575 34.864 182.735 37.84C178.943 40.816 174.575 43.648 169.631 46.336C164.687 48.976 160.655 50.296 157.535 50.296ZM185.114 35.536C187.754 33.712 190.514 31.744 193.394 29.632C191.858 28.576 190.874 27.544 190.442 26.536C190.298 26.2 190.226 25.96 190.226 25.816C190.226 24.856 190.538 24.232 191.162 23.944C191.786 23.608 192.794 23.44 194.186 23.44C194.714 23.44 196.274 24.088 198.866 25.384C201.458 26.68 203.09 27.328 203.762 27.328C204.482 27.328 205.466 27.136 206.714 26.752C207.962 26.32 208.946 26.104 209.666 26.104C210.434 26.104 210.986 26.272 211.322 26.608C212.522 28.192 213.122 29.152 213.122 29.488C213.122 29.824 212.954 30.112 212.618 30.352C212.33 30.544 211.346 31.216 209.666 32.368C208.034 33.52 206.426 34.696 204.842 35.896C203.258 37.096 201.77 38.44 200.378 39.928C198.986 41.416 198.29 42.616 198.29 43.528C198.29 43.672 198.41 43.744 198.65 43.744C201.242 43.744 209.978 38.488 224.858 27.976C225.194 27.976 225.362 28.288 225.362 28.912C225.362 29.488 223.466 31.552 219.674 35.104C215.882 38.608 211.586 42.064 206.786 45.472C202.034 48.832 198.578 50.512 196.418 50.512C193.058 50.512 191.378 48.832 191.378 45.472C191.378 43.648 191.978 41.896 193.178 40.216C194.426 38.488 197.018 36.184 200.954 33.304C200.138 33.304 199.034 33.112 197.642 32.728C196.25 32.296 195.362 31.792 194.978 31.216C193.73 32.32 191.57 34.168 188.498 36.76C187.778 37.288 186.842 37.552 185.69 37.552C184.538 37.552 183.962 37.384 183.962 37.048C183.962 36.664 184.346 36.16 185.114 35.536Z" fill="url(#paint0_linear)"/>
<defs>
<linearGradient id="paint0_linear" x1="24.0027" y1="27.9326" x2="195.511" y2="27.9326" gradientUnits="userSpaceOnUse">
<stop/>
<stop offset="1" stop-color="#ADEFD1"/>
</linearGradient>
</defs>
</svg>
