<svg width="100%" height="100%" viewBox="0 0 1115 518" fill="none" xmlns="http://www.w3.org/2000/svg">
<g clip-path="url(#clip0)">
<path d="M973.527 510.555L975.441 510.116C954.106 413.376 900.489 325.527 824.468 262.752C766.994 215.365 698.637 183.673 625.833 170.659C553.03 157.645 478.176 163.737 408.32 188.362C338.463 212.987 275.903 255.335 226.528 311.418C177.154 367.5 142.591 435.473 126.093 508.936L128.005 509.379C173.167 307.192 346.959 165.982 550.635 165.982C751.643 165.982 929.495 310.896 973.527 510.555Z" fill="#3F3D56"/>
<path d="M232.774 274.188C203.357 274.188 179.51 249.873 179.51 219.879C179.51 189.885 203.357 165.57 232.774 165.57C262.191 165.57 286.038 189.885 286.038 219.879C286.038 249.873 262.191 274.188 232.774 274.188Z" fill="#FF6584"/>
<path d="M253.008 437.009H254.969V516H253.008V437.009Z" fill="#3F3D56"/>
<path d="M234.907 447.075C234.782 474.697 253.841 497.178 253.841 497.178C253.841 497.178 273.103 474.877 273.228 447.256C273.353 419.634 254.294 397.153 254.294 397.153C254.294 397.153 235.032 419.454 234.907 447.075Z" fill="#ADEFD1"/>
<path opacity="0.1" d="M234.907 447.075C234.782 474.697 253.841 497.178 253.841 497.178C253.841 497.178 273.103 474.877 273.228 447.256C273.353 419.634 254.294 397.153 254.294 397.153C254.294 397.153 235.032 419.454 234.907 447.075Z" fill="black"/>
<path opacity="0.4" d="M623.673 279.959C606.749 279.959 593.029 265.971 593.029 248.715C593.029 231.459 606.749 217.47 623.673 217.47C640.596 217.47 654.316 231.459 654.316 248.715C654.316 265.971 640.596 279.959 623.673 279.959Z" fill="#6C63FF"/>
<path opacity="0.4" d="M680.386 285.555C668.514 285.555 658.89 275.742 658.89 263.638C658.89 251.533 668.514 241.72 680.386 241.72C692.257 241.72 701.882 251.533 701.882 263.638C701.882 275.742 692.257 285.555 680.386 285.555Z" fill="#6C63FF"/>
<path opacity="0.4" d="M910.839 348.548C898.967 348.548 889.343 338.736 889.343 326.631C889.343 314.526 898.967 304.713 910.839 304.713C922.71 304.713 932.335 314.526 932.335 326.631C932.335 338.736 922.71 348.548 910.839 348.548Z" fill="#6C63FF"/>
<path opacity="0.4" d="M275.257 277.389C258.333 277.389 244.613 263.4 244.613 246.144C244.613 228.889 258.333 214.9 275.257 214.9C292.18 214.9 305.9 228.889 305.9 246.144C305.9 263.4 292.18 277.389 275.257 277.389Z" fill="#6C63FF"/>
<path d="M1059.47 507.217C1057.8 513.478 1052.11 517.356 1052.11 517.356C1052.11 517.356 1049.12 511.082 1050.78 504.821C1052.44 498.56 1058.13 494.682 1058.13 494.682C1058.13 494.682 1061.13 500.956 1059.47 507.217Z" fill="#3F3D56"/>
<path d="M1057.02 505.871C1052.47 510.396 1051.91 517.351 1051.91 517.351C1051.91 517.351 1058.74 516.97 1063.3 512.446C1067.86 507.922 1068.42 500.967 1068.42 500.967C1068.42 500.967 1061.58 501.347 1057.02 505.871Z" fill="#ADEFD1"/>
<path d="M459.307 507.217C457.646 513.478 451.956 517.356 451.956 517.356C451.956 517.356 448.959 511.082 450.62 504.821C452.282 498.56 457.971 494.682 457.971 494.682C457.971 494.682 460.968 500.956 459.307 507.217Z" fill="#3F3D56"/>
<path d="M456.866 505.871C452.308 510.396 451.751 517.351 451.751 517.351C451.751 517.351 458.584 516.97 463.143 512.446C467.701 507.922 468.258 500.967 468.258 500.967C468.258 500.967 461.424 501.347 456.866 505.871Z" fill="#ADEFD1"/>
<path d="M1048.18 460.153L1052.24 453.258L1014.37 420.164H916.999V429.816L952.161 468.427L992.733 476.7L1048.18 460.153Z" fill="#3F3D56"/>
<path d="M900.237 439.585V418.01H912.986V424.814L916.999 420.164L949.456 453.258L954.867 458.774L961.628 486.353L949.456 516.688H887.247V454.637L900.237 439.585Z" fill="#CCCCCC"/>
<path d="M949.457 453.258H1052.24V516.689H949.457V453.258Z" fill="#F2F2F2"/>
<path d="M963.657 473.253H985.295V492.558H963.657V473.253Z" fill="#3F3D56"/>
<path d="M994.085 472.563H1013.02V516.689H994.085V472.563Z" fill="#CCCCCC"/>
<path d="M1034.66 479.458V472.563H1042.77V479.458H1035.33H1034.66Z" fill="#3F3D56"/>
<path d="M1035.33 484.973H1042.77V491.868H1034.66V484.973H1035.33Z" fill="#3F3D56"/>
<path d="M1021.13 472.563H1029.25V479.458H1021.13V472.563Z" fill="#3F3D56"/>
<path d="M1021.13 484.973H1029.25V491.868H1021.13V484.973Z" fill="#3F3D56"/>
<path d="M920.38 480.148V473.252H928.495V480.148H921.057H920.38Z" fill="#3F3D56"/>
<path d="M921.057 485.663H928.495V492.557H920.38V485.663H921.057Z" fill="#3F3D56"/>
<path d="M906.856 473.253H914.971V480.147H906.856V473.253Z" fill="#3F3D56"/>
<path d="M906.856 485.663H914.971V492.558H906.856V485.663Z" fill="#3F3D56"/>
<path d="M656.902 460.153L660.959 453.258L623.092 420.164H525.719V429.816L560.881 468.427L601.454 476.7L656.902 460.153Z" fill="#3F3D56"/>
<path d="M508.958 439.585V418.01H521.706V424.814L525.719 420.164L558.177 453.258L563.587 458.774L570.349 486.353L558.177 516.688H495.967V454.637L508.958 439.585Z" fill="#CCCCCC"/>
<path d="M558.177 453.258H660.959V516.689H558.177V453.258Z" fill="#F2F2F2"/>
<path d="M572.377 473.253H594.015V492.558H572.377V473.253Z" fill="#3F3D56"/>
<path d="M602.806 472.563H621.739V516.689H602.806V472.563Z" fill="#CCCCCC"/>
<path d="M643.378 479.458V472.563H651.491V479.458H644.054H643.378Z" fill="#3F3D56"/>
<path d="M644.054 484.973H651.491V491.868H643.378V484.973H644.054Z" fill="#3F3D56"/>
<path d="M629.854 472.563H637.968V479.458H629.854V472.563Z" fill="#3F3D56"/>
<path d="M629.854 484.973H637.968V491.868H629.854V484.973Z" fill="#3F3D56"/>
<path d="M529.1 480.148V473.252H537.215V480.148H529.777H529.1Z" fill="#3F3D56"/>
<path d="M529.777 485.663H537.215V492.557H529.1V485.663H529.777Z" fill="#3F3D56"/>
<path d="M515.576 473.253H523.691V480.147H515.576V473.253Z" fill="#3F3D56"/>
<path d="M515.576 485.663H523.691V492.558H515.576V485.663Z" fill="#3F3D56"/>
<path d="M839.913 344.323L846.674 338.807L808.807 304.334H712.788V334.67L774.998 377.418L839.913 344.323Z" fill="#3F3D56"/>
<path d="M695.281 323.672V305.023H708.03V309.59L712.788 304.334L743.893 338.807L756.064 347.081L774.937 487.669L746.475 516.688H680.33V340.186L695.281 323.672Z" fill="#CCCCCC"/>
<path d="M743.893 338.807H846.675V516.689H743.893V338.807Z" fill="#F2F2F2"/>
<path d="M787.846 473.253H806.779V516.689H787.846V473.253Z" fill="#CCCCCC"/>
<path d="M827.065 485.663V478.769H835.179V485.663H827.741H827.065Z" fill="#3F3D56"/>
<path d="M827.741 491.178H835.179V498.074H827.065V491.178H827.741Z" fill="#3F3D56"/>
<path d="M813.541 478.768H821.656V485.663H813.541V478.768Z" fill="#3F3D56"/>
<path d="M813.541 491.179H821.656V498.073H813.541V491.179Z" fill="#3F3D56"/>
<path d="M771.617 485.663V478.769H779.731V485.663H772.293H771.617Z" fill="#3F3D56"/>
<path d="M772.293 491.178H779.731V498.074H771.617V491.178H772.293Z" fill="#3F3D56"/>
<path d="M758.093 478.768H766.208V485.663H758.093V478.768Z" fill="#3F3D56"/>
<path d="M758.093 491.179H766.208V498.073H758.093V491.179Z" fill="#3F3D56"/>
<path d="M714.817 347.77V340.876H722.931V347.77H715.493H714.817Z" fill="#3F3D56"/>
<path d="M715.493 353.286H722.931V360.181H714.817V353.286H715.493Z" fill="#3F3D56"/>
<path d="M701.293 340.876H709.407V347.77H701.293V340.876Z" fill="#3F3D56"/>
<path d="M701.293 353.286H709.407V360.181H701.293V353.286Z" fill="#3F3D56"/>
<path d="M714.817 386.381V379.486H722.931V386.381H715.493H714.817Z" fill="#3F3D56"/>
<path d="M715.493 391.896H722.931V398.79H714.817V391.896H715.493Z" fill="#3F3D56"/>
<path d="M701.293 379.486H709.407V386.38H701.293V379.486Z" fill="#3F3D56"/>
<path d="M701.293 391.896H709.407V398.791H701.293V391.896Z" fill="#3F3D56"/>
<path d="M714.817 424.991V418.095H722.931V424.991H715.493H714.817Z" fill="#3F3D56"/>
<path d="M715.493 430.506H722.931V437.4H714.817V430.506H715.493Z" fill="#3F3D56"/>
<path d="M701.293 418.096H709.407V424.99H701.293V418.096Z" fill="#3F3D56"/>
<path d="M701.293 430.506H709.407V437.401H701.293V430.506Z" fill="#3F3D56"/>
<path d="M714.817 463.6V456.705H722.931V463.6H715.493H714.817Z" fill="#3F3D56"/>
<path d="M715.493 469.116H722.931V476.01H714.817V469.116H715.493Z" fill="#3F3D56"/>
<path d="M701.293 456.705H709.407V463.6H701.293V456.705Z" fill="#3F3D56"/>
<path d="M701.293 469.116H709.407V476.01H701.293V469.116Z" fill="#3F3D56"/>
<path d="M756.741 347.77H835.179V364.317H756.741V347.77Z" fill="#3F3D56"/>
<path d="M756.741 380.865H835.179V397.412H756.741V380.865Z" fill="#3F3D56"/>
<path d="M756.741 413.959H835.179V430.506H756.741V413.959Z" fill="#3F3D56"/>
<path d="M756.741 447.053H835.179V463.6H756.741V447.053Z" fill="#3F3D56"/>
<path d="M444.71 344.323L451.472 338.807L413.605 304.334H317.586V334.67L379.795 377.418L444.71 344.323Z" fill="#3F3D56"/>
<path d="M300.079 323.672V305.023H312.828V309.59L317.586 304.334L348.691 338.807L360.862 347.081L379.734 487.669L351.273 516.688H285.128V340.186L300.079 323.672Z" fill="#CCCCCC"/>
<path d="M348.691 338.807H451.472V516.689H348.691V338.807Z" fill="#F2F2F2"/>
<path d="M392.643 473.253H411.577V516.689H392.643V473.253Z" fill="#CCCCCC"/>
<path d="M431.863 485.663V478.769H439.977V485.663H432.539H431.863Z" fill="#3F3D56"/>
<path d="M432.539 491.178H439.977V498.074H431.863V491.178H432.539Z" fill="#3F3D56"/>
<path d="M418.339 478.768H426.453V485.663H418.339V478.768Z" fill="#3F3D56"/>
<path d="M418.339 491.179H426.453V498.073H418.339V491.179Z" fill="#3F3D56"/>
<path d="M376.415 485.663V478.769H384.529V485.663H377.091H376.415Z" fill="#3F3D56"/>
<path d="M377.091 491.178H384.529V498.074H376.415V491.178H377.091Z" fill="#3F3D56"/>
<path d="M362.891 478.768H371.005V485.663H362.891V478.768Z" fill="#3F3D56"/>
<path d="M362.891 491.179H371.005V498.073H362.891V491.179Z" fill="#3F3D56"/>
<path d="M319.615 347.77V340.876H327.729V347.77H320.29H319.615Z" fill="#3F3D56"/>
<path d="M320.29 353.286H327.729V360.181H319.615V353.286H320.29Z" fill="#3F3D56"/>
<path d="M306.09 340.876H314.205V347.77H306.09V340.876Z" fill="#3F3D56"/>
<path d="M306.09 353.286H314.205V360.181H306.09V353.286Z" fill="#3F3D56"/>
<path d="M319.615 386.381V379.486H327.729V386.381H320.29H319.615Z" fill="#3F3D56"/>
<path d="M320.29 391.896H327.729V398.79H319.615V391.896H320.29Z" fill="#3F3D56"/>
<path d="M306.09 379.486H314.205V386.38H306.09V379.486Z" fill="#3F3D56"/>
<path d="M306.09 391.896H314.205V398.791H306.09V391.896Z" fill="#3F3D56"/>
<path d="M319.615 424.991V418.095H327.729V424.991H320.29H319.615Z" fill="#3F3D56"/>
<path d="M320.29 430.506H327.729V437.4H319.615V430.506H320.29Z" fill="#3F3D56"/>
<path d="M306.09 418.096H314.205V424.99H306.09V418.096Z" fill="#3F3D56"/>
<path d="M306.09 430.506H314.205V437.401H306.09V430.506Z" fill="#3F3D56"/>
<path d="M319.615 463.6V456.705H327.729V463.6H320.29H319.615Z" fill="#3F3D56"/>
<path d="M320.29 469.116H327.729V476.01H319.615V469.116H320.29Z" fill="#3F3D56"/>
<path d="M306.09 456.705H314.205V463.6H306.09V456.705Z" fill="#3F3D56"/>
<path d="M306.09 469.116H314.205V476.01H306.09V469.116Z" fill="#3F3D56"/>
<path d="M361.538 347.77H439.977V364.317H361.538V347.77Z" fill="#3F3D56"/>
<path d="M361.538 380.865H439.977V397.412H361.538V380.865Z" fill="#3F3D56"/>
<path d="M361.538 413.959H439.977V430.506H361.538V413.959Z" fill="#3F3D56"/>
<path d="M361.538 447.053H439.977V463.6H361.538V447.053Z" fill="#3F3D56"/>
<path d="M227.987 344.323L234.748 338.807L196.881 304.334H100.862V334.67L163.072 377.418L227.987 344.323Z" fill="#3F3D56"/>
<path d="M83.3554 323.672V305.023H96.1039V309.59L100.862 304.334L131.967 338.807L144.138 347.081L163.011 487.669L134.549 516.688H68.4044V340.186L83.3554 323.672Z" fill="#CCCCCC"/>
<path d="M131.967 338.807H234.749V516.689H131.967V338.807Z" fill="#F2F2F2"/>
<path d="M175.919 473.253H194.853V516.689H175.919V473.253Z" fill="#CCCCCC"/>
<path d="M215.139 485.663V478.769H223.253V485.663H215.815H215.139Z" fill="#3F3D56"/>
<path d="M215.815 491.178H223.253V498.074H215.139V491.178H215.815Z" fill="#3F3D56"/>
<path d="M201.615 478.768H209.729V485.663H201.615V478.768Z" fill="#3F3D56"/>
<path d="M201.615 491.179H209.729V498.073H201.615V491.179Z" fill="#3F3D56"/>
<path d="M159.691 485.663V478.769H167.805V485.663H160.367H159.691Z" fill="#3F3D56"/>
<path d="M160.367 491.178H167.805V498.074H159.691V491.178H160.367Z" fill="#3F3D56"/>
<path d="M146.167 478.768H154.281V485.663H146.167V478.768Z" fill="#3F3D56"/>
<path d="M146.167 491.179H154.281V498.073H146.167V491.179Z" fill="#3F3D56"/>
<path d="M102.891 347.77V340.876H111.005V347.77H103.567H102.891Z" fill="#3F3D56"/>
<path d="M103.567 353.286H111.005V360.181H102.891V353.286H103.567Z" fill="#3F3D56"/>
<path d="M89.3666 340.876H97.481V347.77H89.3666V340.876Z" fill="#3F3D56"/>
<path d="M89.3666 353.286H97.481V360.181H89.3666V353.286Z" fill="#3F3D56"/>
<path d="M102.891 386.381V379.486H111.005V386.381H103.567H102.891Z" fill="#3F3D56"/>
<path d="M103.567 391.896H111.005V398.79H102.891V391.896H103.567Z" fill="#3F3D56"/>
<path d="M89.3666 379.486H97.481V386.38H89.3666V379.486Z" fill="#3F3D56"/>
<path d="M89.3666 391.896H97.481V398.791H89.3666V391.896Z" fill="#3F3D56"/>
<path d="M102.891 424.991V418.095H111.005V424.991H103.567H102.891Z" fill="#3F3D56"/>
<path d="M103.567 430.506H111.005V437.4H102.891V430.506H103.567Z" fill="#3F3D56"/>
<path d="M89.3666 418.096H97.481V424.99H89.3666V418.096Z" fill="#3F3D56"/>
<path d="M89.3666 430.506H97.481V437.401H89.3666V430.506Z" fill="#3F3D56"/>
<path d="M102.891 463.6V456.705H111.005V463.6H103.567H102.891Z" fill="#3F3D56"/>
<path d="M103.567 469.116H111.005V476.01H102.891V469.116H103.567Z" fill="#3F3D56"/>
<path d="M89.3666 456.705H97.481V463.6H89.3666V456.705Z" fill="#3F3D56"/>
<path d="M89.3666 469.116H97.481V476.01H89.3666V469.116Z" fill="#3F3D56"/>
<path d="M144.815 347.77H223.253V364.317H144.815V347.77Z" fill="#3F3D56"/>
<path d="M144.815 380.865H223.253V397.412H144.815V380.865Z" fill="#3F3D56"/>
<path d="M144.815 413.959H223.253V430.506H144.815V413.959Z" fill="#3F3D56"/>
<path d="M144.815 447.053H223.253V463.6H144.815V447.053Z" fill="#3F3D56"/>
<path d="M0 516H1115V518H0V516Z" fill="#3F3D56"/>
<path d="M865.915 437.009H867.876V516H865.915V437.009Z" fill="#3F3D56"/>
<path d="M847.814 447.075C847.689 474.697 866.748 497.178 866.748 497.178C866.748 497.178 886.01 474.877 886.135 447.256C886.26 419.634 867.2 397.153 867.2 397.153C867.2 397.153 847.939 419.454 847.814 447.075Z" fill="#ADEFD1"/>
<path d="M669.785 437.009H671.746V516H669.785V437.009Z" fill="#3F3D56"/>
<path d="M651.684 447.075C651.559 474.697 670.618 497.178 670.618 497.178C670.618 497.178 689.88 474.877 690.005 447.256C690.129 419.634 671.07 397.153 671.07 397.153C671.07 397.153 651.809 419.454 651.684 447.075Z" fill="#ADEFD1"/>
<path d="M278.505 437.009H280.466V516H278.505V437.009Z" fill="#3F3D56"/>
<path d="M260.404 447.075C260.279 474.697 279.339 497.178 279.339 497.178C279.339 497.178 298.6 474.877 298.725 447.256C298.85 419.634 279.791 397.153 279.791 397.153C279.791 397.153 260.529 419.454 260.404 447.075Z" fill="#ADEFD1"/>
<path d="M538.868 172.031C518.287 172.031 501.603 168.204 501.603 163.482C501.603 158.761 518.287 154.933 538.868 154.933C559.448 154.933 576.132 158.761 576.132 163.482C576.132 168.204 559.448 172.031 538.868 172.031Z" fill="#00203F"/>
<path d="M496.7 43.9952C496.7 68.2931 539.848 136.985 539.848 136.985C539.848 136.985 582.997 68.2931 582.997 43.9952C582.997 32.3269 578.451 21.1366 570.359 12.8859C562.267 4.63519 551.292 0 539.848 0C528.405 0 517.43 4.63519 509.338 12.8859C501.246 21.1366 496.7 32.3269 496.7 43.9952Z" fill="#00203F"/>
<path d="M539.848 68.9925C526.308 68.9925 515.332 57.8008 515.332 43.9952C515.332 30.1896 526.308 18.9979 539.848 18.9979C553.388 18.9979 564.365 30.1896 564.365 43.9952C564.365 57.8008 553.388 68.9925 539.848 68.9925Z" fill="#F2F2F2"/>
</g>
<defs>
<clipPath id="clip0">
<rect width="100%" height="100%" fill="white" transform="matrix(-1 0 0 1 1115 0)"/>
</clipPath>
</defs>
</svg>
